<svg xmlns="http://www.w3.org/2000/svg" width="446" height="56" viewBox="0 0 446 56"><g transform="translate(-39.952 -40.196)"><path d="M181.055,55.354c1.513,1.041,1.6,1.125,1.306,2.27a63.641,63.641,0,0,0-4.447,7.84,101.229,101.229,0,0,1-3.473-17.708,18.935,18.935,0,0,0,6.614,7.6" transform="translate(-91 16)"/><path d="M186.747,29.979V80H130.952V24.2h55.795l.005,2.92a5.188,5.188,0,0,0-5.08-.553c-4.068,1.927-5.962,9.478-7.346,14.991q-.185.747-.359,1.408c-.1-1.368-.179-2.673-.223-3.879.815-3.565,1.484-6.3,1.831-7.343a1.569,1.569,0,0,0,.361-1.178c-.054-.683-.415-1.192-.879-1.242-.023,0-.046,0-.069,0-.913-.32-1.745.174-2.282,1.383-.676,1.52-.917,4.489-.833,8.173-.274,1.2-.566,2.5-.869,3.879-1.353,6.1-2.75,12.758-3.767,17.924-.756-5.947-1.692-13.34-2.651-19.366-1.448-9.135-2.293-11.133-3.075-11.692a1.314,1.314,0,0,0-.672-1.163c-.374-.169-.912-.122-1.35,1.065a76.069,76.069,0,0,0-1.974,8.016c-1.228-4.576-2.3-6.927-3.65-6.927-1.135,0-2.33,1.18-4.421,14.463-1.082-3.459-1.994-6.789-2.617-9.48.651-3.042.833-5.24.4-6.6a2.281,2.281,0,0,0-1.133-1.461c-.874-.359-1.613.209-1.868,1.4-.293,1.345.055,3.871.666,6.7-1.005,4.231-2.763,9.916-4.016,13.968-2.356,7.616-4.094,13.378-4.686,17.294-.484-6.285.439-18.777.941-25.6.8-10.89.8-11.821-.069-12.451a.815.815,0,0,0-1.172.236,1.7,1.7,0,0,0-.083,1.841c.022.032.045.055.065.084.042,1.543-.289,6.019-.584,10.021-1.207,16.339-1.922,29.046.695,31.654a1.666,1.666,0,0,0,2.276.149,1.472,1.472,0,0,0,.517-1.388,1.145,1.145,0,0,0-.8-1.084.111.111,0,0,1-.054-.017c-.981-1.478,2.546-12.882,4.655-19.7,1.322-4.279,2.443-7.961,3.276-11.052,1.175,4.439,2.565,8.639,2.845,9.477l.1.3c-1.334,9.244-2.517,19.689-3.227,25.98l-.1.89a1.317,1.317,0,0,0,.769,1.492c.5.113.979-.371,1.061-1.082l.1-.89c1.056-9.346,1.971-16.72,2.761-22.517a80.466,80.466,0,0,0,4.075,9.522c.136,3.192.818,3.915,1.179,4.3.859.906,1.837.564,2.663-.093.741-.016,1.507-.638,1.907-2.365a1.606,1.606,0,0,0-.388-1.507.733.733,0,0,0-1.132.159,10.952,10.952,0,0,1-.751.913,9.184,9.184,0,0,1-1.694-2.4,111.378,111.378,0,0,1,1.71-15.1c.184.82.36,1.615.522,2.364,2.861,12.989,4.881,21.289,7.636,22.727a1.035,1.035,0,0,0,.259.238.719.719,0,0,0,.869-.031.848.848,0,0,0,.471.5.747.747,0,0,0,.923-.2,1.686,1.686,0,0,0,.159-1.821c-.115-.538-.32-1.937-.559-3.742.89-4.953,2.661-13.6,4.3-21.115.816,8.351,2.668,17.885,4.747,23.066a3.925,3.925,0,0,0,.138,1.2,2.61,2.61,0,0,0,1.4,1.714c.021.029.045.061.066.087,1.093,1.339,2.294,1.428,3.3.245a1.662,1.662,0,0,0,.289-1.4,1.065,1.065,0,0,0-.81-.9,10.784,10.784,0,0,1-1.873-.342,9.547,9.547,0,0,1-.587-1.059c.282-1.082,1.4-3.523,4.885-9.018a1.469,1.469,0,0,0,.178-.418c.94-3.6-.639-4.689-2.17-5.74-1.612-1.108-4.019-2.763-6.494-7.905.22-.782.446-1.68.7-2.684,1.185-4.728,2.98-11.869,6.19-13.39,1.29-.61,2.791-.3,4.484.946" transform="translate(-91 16)"/><path d="M155.585,48.045c-.7,4.381-1.076,7.728-1.253,10.292-1.233-2.748-2.463-5.982-3.589-9.277,1.559-10.744,2.563-14.692,3.2-15.73.715.8,1.731,4.507,2.7,8.6-.374,1.993-.735,4.07-1.061,6.118" transform="translate(-91 16)"/><path d="M165.791,68.582c-1.93-2.9-4.2-13.183-5.77-20.332-.522-2.375-1-4.512-1.441-6.419.739-3.974,1.5-7.478,2.054-9.533a.631.631,0,0,0,.146-.039c1.377,3.195,3.558,20.407,4.634,28.906.286,2.257.51,4.043.7,5.468-.131.755-.238,1.4-.323,1.949" transform="translate(-91 16)"/><path d="M202.076,68.958l-.344.54v9.956l.344.543h-1.744l.347-.543V69.5l-.347-.54Z" transform="translate(-91 16)"/><path d="M301.916,72.657a2.453,2.453,0,0,1,1.886-.766,1.918,1.918,0,0,1,1.982,1.9v5.726l.261.466h-1.207V74.1a1.346,1.346,0,0,0-1.2-1.5,2.338,2.338,0,0,0-1.77.878l-.7.759-.021.025v5.26l.261.466h-1.484l.277-.466V73.049l-.292-.485,1.238-.532V73.5Z" transform="translate(-91 16)"/><path d="M411.233,72.668a2.445,2.445,0,0,1,1.886-.767,1.917,1.917,0,0,1,1.982,1.9v5.726l.261.466h-1.209V74.107a1.344,1.344,0,0,0-1.192-1.5,2.341,2.341,0,0,0-1.772.881s-.7.758-.7.758l-.023.023v5.262l.265.466h-1.488l.279-.466V73.059l-.294-.485,1.238-.532v1.465Z" transform="translate(-91 16)"/><path d="M453.2,72.657a2.447,2.447,0,0,1,1.884-.766,1.919,1.919,0,0,1,1.982,1.9v5.726l.263.466h-1.209V74.1a1.344,1.344,0,0,0-1.194-1.5,2.35,2.35,0,0,0-1.772.878l-.7.759-.019.025v5.26l.261.466h-1.484l.277-.466V73.049l-.292-.485,1.238-.532V73.5Z" transform="translate(-91 16)"/><path d="M206.067,72.658a2.442,2.442,0,0,1,1.884-.767,1.92,1.92,0,0,1,1.982,1.9v5.726l.261.466h-1.207V74.1a1.345,1.345,0,0,0-1.2-1.5,2.338,2.338,0,0,0-1.772.88s-.7.757-.7.757l-.023.024v5.26l.262.466h-1.485l.277-.466V73.049l-.292-.483,1.238-.531V73.5Z" transform="translate(-91 16)"/><path d="M219.648,70.307v1.859h1.707v.519h-1.707v6.749l.027.026a.775.775,0,0,0,.484.154,1.03,1.03,0,0,0,.942-.628c.07.076.144.154.189.2a1.494,1.494,0,0,1-1.321.964c-.732,0-1.267-.666-1.267-1.587V72.685h-1.193Z" transform="translate(-91 16)"/><path d="M228.645,70.322v1.863h1.707V72.7h-1.707v6.75l.027.025a.785.785,0,0,0,.484.153,1.022,1.022,0,0,0,.938-.627c.074.076.147.152.191.2a1.493,1.493,0,0,1-1.317.965c-.736,0-1.269-.669-1.269-1.589V72.7h-1.2Z" transform="translate(-91 16)"/><path d="M240.992,70.33v1.86H242.7v.517h-1.707v6.751l.029.024a.753.753,0,0,0,.48.154,1.03,1.03,0,0,0,.942-.627c.073.074.146.154.189.2a1.494,1.494,0,0,1-1.319.965c-.734,0-1.265-.666-1.265-1.588V72.707h-1.2Z" transform="translate(-91 16)"/><path d="M389.8,70.33v1.86H391.5v.517H389.8v6.751l.027.024a.768.768,0,0,0,.484.154,1.029,1.029,0,0,0,.94-.627c.071.074.146.154.189.2a1.493,1.493,0,0,1-1.319.965c-.732,0-1.267-.666-1.267-1.588V72.707h-1.194Z" transform="translate(-91 16)"/><path d="M237.351,72.038v7.485l.263.466H236.4s0-1.733,0-1.729a5.967,5.967,0,0,1-.7.929,2.6,2.6,0,0,1-2.12.966,1.665,1.665,0,0,1-1.455-1.611V73.056l-.292-.485,1.238-.533v6.29a.987.987,0,0,0,.938,1.084,2.37,2.37,0,0,0,1.714-.914,5.855,5.855,0,0,0,.675-.9c0-.007,0-4.538,0-4.538l-.292-.485Z" transform="translate(-91 16)"/><path d="M249.84,75.821c0-.111.027-.449.027-.449a3.311,3.311,0,0,0-3.01-3.47c-1.9,0-2.93,2.151-2.93,4.172,0,2.036,1.008,4.1,2.93,4.1a2.76,2.76,0,0,0,2.61-1.407l-.251-.28a2.411,2.411,0,0,1-1.948,1.076c-1.96,0-2.112-2.8-2.112-3.656v-.083Zm-4.667-.6c0-.028.044-2.8,1.684-2.8a2.187,2.187,0,0,1,1.87,2.174,1.451,1.451,0,0,1-.144.66l-.023.05h-3.387Z" transform="translate(-91 16)"/><path d="M470.806,75.814c0-.111.027-.45.027-.45a3.311,3.311,0,0,0-3-3.479c-1.895,0-2.918,2.156-2.918,4.183s1,4.11,2.918,4.11a2.758,2.758,0,0,0,2.6-1.413c-.05-.06-.177-.2-.254-.281a2.385,2.385,0,0,1-1.939,1.08c-1.955,0-2.109-2.807-2.109-3.666v-.084Zm-4.654-.6c0-.027.046-2.808,1.68-2.808a2.193,2.193,0,0,1,1.865,2.181,1.451,1.451,0,0,1-.144.662l-.022.05h-3.379Z" transform="translate(-91 16)"/><path d="M450.054,75.821c.008-.111.031-.448.031-.448a3.3,3.3,0,0,0-3-3.467c-1.9,0-2.922,2.147-2.922,4.168s1,4.093,2.922,4.093a2.753,2.753,0,0,0,2.6-1.407c-.054-.058-.177-.2-.25-.28a2.4,2.4,0,0,1-1.943,1.076c-1.955,0-2.109-2.795-2.109-3.652v-.083Zm-4.652-.6c0-.028.046-2.8,1.68-2.8a2.183,2.183,0,0,1,1.865,2.171,1.438,1.438,0,0,1-.144.66l-.022.05H445.4Z" transform="translate(-91 16)"/><path d="M258.283,71.9c-2.042,0-3.26,2.1-3.26,4.131s1.218,4.147,3.26,4.147,3.26-2.108,3.26-4.147-1.218-4.131-3.26-4.131m0,7.8c-1.538,0-2.088-1.9-2.088-3.67s.55-3.671,2.088-3.671c1.555,0,2.107,1.9,2.107,3.671s-.552,3.67-2.107,3.67" transform="translate(-91 16)"/><path d="M285.123,79.986l-.261-.542V68.159c-.191.082-1.219.565-1.219.565l.273.577v4.06l-.154-.253a2.594,2.594,0,0,0-2.2-1.213c-1.536,0-2.566,2.136-2.566,4.133s1.03,4.15,2.566,4.15a2.634,2.634,0,0,0,2.2-1.233l.154-.25v1.291Zm-1.211-1.895a2.017,2.017,0,0,1-1.872,1.362c-1.7,0-1.88-2.4-1.88-3.425s.184-3.427,1.88-3.427a1.987,1.987,0,0,1,1.876,1.413v4.062Z" transform="translate(-91 16)"/><path d="M327.052,79.987l-.264-.542V68.159l-1.218.565.275.581v4.056l-.156-.251a2.594,2.594,0,0,0-2.2-1.213c-1.536,0-2.566,2.136-2.566,4.132s1.03,4.152,2.566,4.152a2.638,2.638,0,0,0,2.2-1.234l.156-.251v1.291Zm-1.212-1.9a2.015,2.015,0,0,1-1.874,1.363c-1.693,0-1.876-2.4-1.876-3.425s.183-3.426,1.876-3.426a1.994,1.994,0,0,1,1.879,1.413v4.062Z" transform="translate(-91 16)"/><path d="M422.581,80.012l-.265-.542V68.152l-1.219.566.275.579v4.057l-.152-.25a2.6,2.6,0,0,0-2.2-1.215c-1.536,0-2.567,2.137-2.567,4.133s1.031,4.151,2.567,4.151a2.638,2.638,0,0,0,2.2-1.233l.152-.252v1.324Zm-1.215-1.926a2.013,2.013,0,0,1-1.872,1.362c-1.694,0-1.878-2.395-1.878-3.426s.184-3.426,1.878-3.426a1.987,1.987,0,0,1,1.878,1.412V78.07Z" transform="translate(-91 16)"/><path d="M357.335,79.987l-.263-.542V68.175l-1.219.566.275.579v4.058l-.154-.253a2.6,2.6,0,0,0-2.2-1.213c-1.534,0-2.564,2.137-2.564,4.132s1.03,4.152,2.564,4.152a2.647,2.647,0,0,0,2.2-1.233l.154-.25v1.274Zm-1.213-1.878a2.018,2.018,0,0,1-1.872,1.361c-1.7,0-1.88-2.4-1.88-3.426s.184-3.425,1.88-3.425a1.99,1.99,0,0,1,1.878,1.412v4.06Z" transform="translate(-91 16)"/><path d="M292.279,72.271l-.494.443-2.491,7.273h-.327l-2.457-7.246-.407-.47h1.787l-.375.462,1.8,5.365,1.8-5.365-.273-.462Z" transform="translate(-91 16)"/><path d="M298.29,79.991l-.279-.478V73.961a2.156,2.156,0,0,0-2.324-2.074,3.674,3.674,0,0,0-2.066.59v1.165a3.192,3.192,0,0,1,2.074-1.3,1.279,1.279,0,0,1,1.367,1.437v1.538h-1.667a2.6,2.6,0,0,0-2.634,2.641c0,1.222.654,2.216,1.423,2.216a1.422,1.422,0,0,0,.535-.137,17.424,17.424,0,0,0,2.343-1.565v1.518Zm-3.06-.847a1.739,1.739,0,0,1-.7.222c-.338,0-.73-.283-.73-1.374a1.988,1.988,0,0,1,1.96-2.2h1.306v2.145Z" transform="translate(-91 16)"/><path d="M307.264,76.079c0-2.264,1.046-4.184,3.091-4.184a2.957,2.957,0,0,1,2.057.724v1.12c-.977-1.245-1.584-1.358-2.034-1.358-1.488,0-1.945,1.986-1.945,3.546,0,2.305.813,3.628,2.235,3.628a2.364,2.364,0,0,0,1.483-.687c.065.075.2.227.265.3a2.564,2.564,0,0,1-2.157,1c-1.969,0-2.991-2.056-2.995-4.087" transform="translate(-91 16)"/><path d="M458.59,76.079c0-2.264,1.045-4.182,3.09-4.182a2.969,2.969,0,0,1,2.061.722v1.12c-.983-1.245-1.587-1.358-2.038-1.358-1.489,0-1.945,1.986-1.945,3.546,0,2.306.815,3.629,2.234,3.629a2.368,2.368,0,0,0,1.485-.688c.069.075.2.227.268.3a2.576,2.576,0,0,1-2.16,1c-1.965,0-2.991-2.056-2.995-4.087" transform="translate(-91 16)"/><path d="M434.445,76.063c0-2.268,1.046-4.19,3.091-4.19a2.947,2.947,0,0,1,2.057.723V73.72c-.976-1.25-1.584-1.362-2.034-1.363-1.491,0-1.949,1.991-1.949,3.554,0,2.31.819,3.633,2.238,3.633a2.36,2.36,0,0,0,1.482-.685c.067.074.205.224.269.3a2.562,2.562,0,0,1-2.159,1c-1.968,0-2.991-2.058-2.995-4.093" transform="translate(-91 16)"/><path d="M342.683,68.948l-.567.779v9.72l.33.54h-1.622l.346-.54v-8.72l-.156-.039-3.158,5.921-3.364-6.29v9.128l.346.54h-1.415l.331-.54v-9.72l-.45-.779h1.682l3.093,5.831,3.076-5.831Z" transform="translate(-91 16)"/><path d="M383.919,73.522l.619-.742a1.886,1.886,0,0,1,1.5-.885,1.911,1.911,0,0,1,.515.11v1.667l-1.323-1.018-1.455,1.795v5.06l.267.47h-1.493l.278-.467V73.14l-.294-.6L383.771,72v1.7Z" transform="translate(-91 16)"/><path d="M432.315,77.445a2.08,2.08,0,0,0-.75-1.7L429.5,74.1a3.266,3.266,0,0,1-1.271-2.5,2.607,2.607,0,0,1,2.482-2.671l.455.055c.006,0,1.89.393,1.89.393l-.819.887-.83-.524-.337-.1-.359-.046a1.579,1.579,0,0,0-1.538,1.681,2.808,2.808,0,0,0,1.142,1.983l2.055,1.652a2.473,2.473,0,0,1,.909,2.081,2.974,2.974,0,0,1-2.722,3.183l-.581-.073-1.826-.4.761-1.06.879.676a1.562,1.562,0,0,0,.767.185,1.857,1.857,0,0,0,1.757-2.06" transform="translate(-91 16)"/><path d="M224.481,72.02V79.5l.277.466h-1.486l.263-.466V73.036l-.292-.483Z" transform="translate(-91 16)"/><path d="M224.577,70.257a.555.555,0,1,1-.557-.555.557.557,0,0,1,.557.555" transform="translate(-91 16)"/><path d="M360.87,72.051v7.485l.277.465h-1.486l.263-.465V73.068l-.292-.484Z" transform="translate(-91 16)"/><path d="M360.966,70.288a.556.556,0,1,1-.558-.553.558.558,0,0,1,.558.553" transform="translate(-91 16)"/><path d="M442.363,72.051v7.485l.279.466h-1.486l.263-.466V73.068l-.294-.484Z" transform="translate(-91 16)"/><path d="M442.459,70.288a.557.557,0,1,1-.556-.553.556.556,0,0,1,.556.553" transform="translate(-91 16)"/><path d="M263.25,70.754c0-1.518.915-2.422,1.8-2.422h1.632l-.886.855-.724-.45-.054.023a1.354,1.354,0,0,0-.819,1.253V72.28h1.382V72.8H264.2v6.73l.277.468h-1.484l.261-.468Z" transform="translate(-91 16)"/><path d="M278.317,79.982l-.492-.6-3.087-10.43h-.415l-3.19,10.5-.374.527h1.287l-.253-.527,1.057-3.565h2.887l1.011,3.565-.253.527ZM273,75.4l1.323-4.159,1.264,4.159Z" transform="translate(-91 16)"/><path d="M381.4,79.99l-.494-.6-3.085-10.431h-.417l-3.189,10.5-.373.528h1.288l-.258-.528,1.057-3.564h2.888l1.015,3.564-.254.528Zm-5.317-4.579,1.321-4.16,1.266,4.16Z" transform="translate(-91 16)"/><path d="M215.352,78.243a1.458,1.458,0,0,0-.605-1.175l-2.277-1.5a1.594,1.594,0,0,1-.742-1.465,2.118,2.118,0,0,1,2.053-2.219,3.143,3.143,0,0,1,.764.165s1.384.409,1.518.45c-.157.146-.553.443-.794.62-.057-.047-.792-.63-.792-.63a1.528,1.528,0,0,0-.611-.193,1.311,1.311,0,0,0-1.28,1.237,1.613,1.613,0,0,0,.634,1.285l2.23,1.507a1.51,1.51,0,0,1,.657,1.406,2.313,2.313,0,0,1-2.222,2.427,2.039,2.039,0,0,1-.649-.089s-1.377-.416-1.734-.526c.192-.185.772-.627.857-.693.06.047.846.685.846.685a1.16,1.16,0,0,0,.746.25,1.554,1.554,0,0,0,1.4-1.543" transform="translate(-91 16)"/><path d="M396.387,78.249a1.462,1.462,0,0,0-.606-1.175l-2.278-1.5a1.59,1.59,0,0,1-.742-1.464,2.117,2.117,0,0,1,2.053-2.219,3.228,3.228,0,0,1,.764.162l1.52.454c-.157.146-.553.442-.794.617l-.794-.626a1.479,1.479,0,0,0-.611-.195,1.311,1.311,0,0,0-1.28,1.237,1.615,1.615,0,0,0,.636,1.285l2.228,1.506a1.512,1.512,0,0,1,.658,1.407,2.314,2.314,0,0,1-2.223,2.426,1.992,1.992,0,0,1-.649-.09s-1.377-.413-1.734-.524c.192-.186.772-.628.859-.693l.846.685a1.152,1.152,0,0,0,.746.25,1.554,1.554,0,0,0,1.4-1.541" transform="translate(-91 16)"/><path d="M475.729,78.24a1.453,1.453,0,0,0-.6-1.175l-2.276-1.5a1.588,1.588,0,0,1-.74-1.464,2.117,2.117,0,0,1,2.051-2.219,3.228,3.228,0,0,1,.764.162l1.518.453c-.159.147-.551.443-.794.618l-.794-.627a1.463,1.463,0,0,0-.609-.194,1.309,1.309,0,0,0-1.28,1.237,1.615,1.615,0,0,0,.636,1.285l2.228,1.506a1.509,1.509,0,0,1,.656,1.407,2.313,2.313,0,0,1-2.221,2.428,2.111,2.111,0,0,1-.65-.089s-1.374-.416-1.733-.527c.192-.185.774-.628.859-.693.059.046.846.682.846.682a1.141,1.141,0,0,0,.744.253,1.553,1.553,0,0,0,1.4-1.542" transform="translate(-91 16)"/><path d="M319.609,75.812c.007-.11.03-.448.03-.448a3.308,3.308,0,0,0-3.014-3.469c-1.9,0-2.923,2.15-2.923,4.172s1,4.1,2.923,4.1a2.77,2.77,0,0,0,2.616-1.409c-.055-.058-.177-.195-.254-.279a2.4,2.4,0,0,1-1.947,1.077c-1.961,0-2.114-2.8-2.114-3.657v-.083Zm-4.665-.6c0-.027.046-2.8,1.681-2.8a2.191,2.191,0,0,1,1.876,2.175,1.458,1.458,0,0,1-.146.66l-.023.05h-3.388Z" transform="translate(-91 16)"/><path d="M349.735,75.805c.008-.112.031-.449.031-.449a3.31,3.31,0,0,0-3.014-3.47c-1.9,0-2.926,2.149-2.926,4.174s1.005,4.1,2.926,4.1a2.761,2.761,0,0,0,2.612-1.409c-.052-.059-.177-.2-.252-.28a2.4,2.4,0,0,1-1.947,1.077c-1.959,0-2.112-2.8-2.112-3.654v-.085Zm-4.665-.6c0-.028.044-2.8,1.682-2.8a2.187,2.187,0,0,1,1.872,2.173,1.487,1.487,0,0,1-.142.661l-.023.049H345.07Z" transform="translate(-91 16)"/><path d="M368.476,79.99l-.279-.478V73.96a2.158,2.158,0,0,0-2.326-2.075,3.691,3.691,0,0,0-2.064.589V73.64a3.186,3.186,0,0,1,2.072-1.3,1.28,1.28,0,0,1,1.369,1.435v1.54h-1.669a2.6,2.6,0,0,0-2.634,2.641c0,1.221.654,2.215,1.423,2.215a1.43,1.43,0,0,0,.536-.137,17.6,17.6,0,0,0,2.344-1.566v1.52Zm-3.062-.847a1.757,1.757,0,0,1-.7.22c-.338,0-.728-.284-.728-1.372a1.986,1.986,0,0,1,1.959-2.2h1.307v2.144Z" transform="translate(-91 16)"/><path d="M407.644,79.99l-.28-.478V73.96a2.157,2.157,0,0,0-2.322-2.075,3.7,3.7,0,0,0-2.069.589V73.64a3.2,3.2,0,0,1,2.072-1.3,1.278,1.278,0,0,1,1.369,1.435v1.54h-1.665a2.6,2.6,0,0,0-2.637,2.641c0,1.221.655,2.215,1.424,2.215a1.439,1.439,0,0,0,.537-.137,17.453,17.453,0,0,0,2.341-1.566v1.52Zm-3.06-.847a1.766,1.766,0,0,1-.705.22c-.341,0-.729-.284-.729-1.372a1.987,1.987,0,0,1,1.959-2.2h1.3v2.144Z" transform="translate(-91 16)"/><path d="M205.775,25.135l-3.08-.938v37.6l1.94-.591L204.627,25.9Z" transform="translate(-91 16)"/><path d="M375.2,42.415c.213-.311.429-.622.625-.926,1.632-2.518,3.931-6.488,3.931-6.488s-2.338-1.334-2.372-1.373a44.055,44.055,0,0,1-2.891,7.009,78.086,78.086,0,0,1-4.4,7.1l.5.5s2.08-2.352,3.948-4.911V61.8l1.942-.591-.008-17.3,1.148-.75Z" transform="translate(-91 16)"/><path d="M226.382,43.876l-2.1-2.1-1.349,1.35H213.16l-2.852-1.654V61.886l1.937-.586,0-7.852h11.183v4.995H216.84v.578a28.239,28.239,0,0,1,3.556.576,1.988,1.988,0,0,1,1.286.766,2.734,2.734,0,0,1,.342.987,10.049,10.049,0,0,0,2.884-1.193,2.289,2.289,0,0,0,.378-1.571c.012-.5,0-.692,0-.692V44.972Zm-2.958.292V47.8H212.241l0-3.631Zm-11.183,4.625h11.182v3.661H212.241Z" transform="translate(-91 16)"/><path d="M398.834,37.846h4.56l-2.857-2.806-1.73,1.722h-6.2v1.084h4.356l0,20.406v.007h-6.585v.573a35.106,35.106,0,0,1,3.558.575,1.981,1.981,0,0,1,1.282.775,2.608,2.608,0,0,1,.342.983,10.042,10.042,0,0,0,2.884-1.19,2.355,2.355,0,0,0,.378-1.578c.016-.5,0-.693,0-.693V57.7Z" transform="translate(-91 16)"/><path d="M199.965,35.607A19.268,19.268,0,0,1,197.91,39c-.388.722-.165,2.892.944,2.784s1.782-2.955,2.228-5.011a36.155,36.155,0,0,0,.5-5.451h-.608a19.373,19.373,0,0,1-1.005,4.287" transform="translate(-91 16)"/><path d="M207.33,37.536c.525,0,1.113-.945,1.113-2.119s-2.484-3.97-2.484-3.97l-.523.3a13.01,13.01,0,0,1,1.117,3.118c.222,1,.252,2.671.777,2.671" transform="translate(-91 16)"/><path d="M225.882,38.628H218.4V34.721h9.664l-2.442-2.471-1.493,1.382H218.4V29.807h11.286L226.834,27l-1.725,1.724H218.4V25.9l1.148-.762-3.08-.939v4.523H208.2v1.088h8.269v3.825H209.41v1.089h7.056v3.907H206.7v1.084h23.762l-2.857-2.81Z" transform="translate(-91 16)"/><path d="M296.914,44.778,295.7,46.9l-1.259.32,0-20.352,1.146-.758-3.078-.933V47.7l-13.237,3.3.3,1.047,12.939-3.289V61.878l1.94-.6,0-13.027,5.967-1.513Z" transform="translate(-91 16)"/><path d="M245.494,36.121h-3.281V30.577h7.495l-2.855-2.808L245.125,29.5h-2.912V25.9l1.143-.762-3.079-.939v5.3h-6.082v1.08h6.082v5.544H232.72v1.088h17.359L247.222,34.4Z" transform="translate(-91 16)"/><path d="M250.079,45.556l-2.857-2.814-1.728,1.725h-2.681c.617-.716,1.614-1.87,2.172-2.654.725-1.012,2.166-3.337,2.166-3.337l-2-.889-2.645,6.88h-3.835a2.431,2.431,0,0,0,.582-1.82c0-1.608-3.135-4.976-3.135-4.976l-.365.367s.388.886.608,1.39.617,1.664.617,1.664c-.187-.85.695,2.385,1.1,3.375h-5.611v1.089h7.823v5.625H233.3V52.27h6.989v9.523l1.936-.59V52.27h7.48l-2.855-2.807-1.728,1.718h-2.9l0-5.625Z" transform="translate(-91 16)"/><path d="M363.673,29.616h-6.361l0-3.273,1.144-.763-3.076-.941v4.977h-7.337V26.343l1.143-.763-3.075-.941v4.977h-9.483V30.7h9.483v5.041l1.936-.146,0-4.9h7.337v5.041l1.936-.146V30.7h10.942L365.4,27.888Z" transform="translate(-91 16)"/><path d="M361.616,37.087l-1.728,1.728H340.34v1.079h24.131Z" transform="translate(-91 16)"/><path d="M507.226,44.151l-2.857-2.817-1.724,1.729H485.623v1.088h5.48a25.861,25.861,0,0,1-.4,5.206,14.132,14.132,0,0,1-3.34,7.193,19.581,19.581,0,0,1-6.566,4.306l.169.678s4.712-1.352,7.47-3.908a12.822,12.822,0,0,0,4.137-7.7,33.721,33.721,0,0,0,.559-5.774h3.9v14.1a2.384,2.384,0,0,0,.59,1.668c.519.4.63.634,4.934.554s4.151-.816,4.185-1.22a.687.687,0,0,0-.482-.746,1.254,1.254,0,0,1-.7-.369,1.992,1.992,0,0,1-.079-.6l.225-6.231-.559-.144s-1.267,6.955-1.552,7.292a.513.513,0,0,1-.376.121h-4.187V44.151Z" transform="translate(-91 16)"/><path d="M399.98,26.779,398.256,28.5h-5.094V29.59h9.676Z" transform="translate(-91 16)"/><path d="M393.6,34.733l-2.441-2.476-1.494,1.387h-2.209V26.931l1.15-.751-3.08-.94v8.4h-4.692v1.089h4.692v26.7l1.93-.591V34.733Z" transform="translate(-91 16)"/><path d="M280.009,46.722c.215-.106.921-.72.583-2.375-.316-1.54-3.709-4.039-4.182-4.377V37.431H282.2l-2.857-2.819-1.728,1.729h-1.2V28.284c2.171-.841,4.258-1.776,4.258-1.776L278.8,24.64a50.231,50.231,0,0,1-4.226,2.839,26.167,26.167,0,0,1-5.3,2v.82a50.39,50.39,0,0,0,5.2-1.315v7.358h-6.132v1.09h5.475a56.28,56.28,0,0,1-2.08,7.615,63.213,63.213,0,0,1-3.675,7.736l.447.447a63.742,63.742,0,0,0,4.118-7.12,42.774,42.774,0,0,0,1.847-4.884V61.886l1.938-.594-.008-20.4c.185.258.387.541.539.759.328.463.974,1.578.974,1.578-.438-.984,1.871,3.6,2.086,3.491" transform="translate(-91 16)"/><path d="M285.1,42.305c-.669-1.034,2.753,3.725,2.98,3.572s.909-.982.23-2.786-5.613-4.26-5.613-4.26l-.252.555s.81.836,1.273,1.3,1.382,1.621,1.382,1.621" transform="translate(-91 16)"/><path d="M286.155,32.9c-.671-1.034,2.751,3.733,2.978,3.577s.907-.979.232-2.786-5.613-4.263-5.613-4.263l-.257.557s.811.831,1.276,1.3,1.384,1.612,1.384,1.612" transform="translate(-91 16)"/><path d="M260.112,54.385c-.36-.432-.633-.814-.933-1.21q.756-1.364,1.375-2.74a29.692,29.692,0,0,0,2.489-8.208l1.2-1.087-1.892-2.108-1.482,1.346h-8.835v-12.3h9.389l-.692,6.875-6.148.019v.576c3.483.378,3.841.845,4.083,1.109a2.111,2.111,0,0,1,.36,1.2s2.541-.6,3.1-1.411a4.088,4.088,0,0,0,.52-2.04l.566-5.529,1.2-1.093-1.892-2.1-1.484,1.341h-7.831l-2.855-1.644v36.5l1.688-.6,0-19.858H253.9a36.166,36.166,0,0,0,1.088,6.173,32.333,32.333,0,0,0,2.356,5.673,32.742,32.742,0,0,1-4.8,7.121l.448.447a31.47,31.47,0,0,0,5.193-6.049,22.26,22.26,0,0,0,4.7,5.878,3.525,3.525,0,0,1,.925-1.353,3.821,3.821,0,0,1,1.742-.481,19.243,19.243,0,0,1-5.446-4.447m-4.339-7.51a32.461,32.461,0,0,1-1.24-5.452h6.72s.089,2.313-2.424,8.621c-.228.577-.472,1.106-.717,1.634a20.214,20.214,0,0,1-2.339-4.8" transform="translate(-91 16)"/><path d="M457.109,48.728h14.938l-2.681-2.811-1.9,1.734H457.109l0-2.749c1.036-.695,3.01-2.041,3.777-2.725,1.059-.941,3.449-3.06,3.449-3.06L462.228,37s-.263.478-.665,1.159H446.321v1.045h14.615c-.419.676-.9,1.419-1.378,2.079a24.27,24.27,0,0,1-2.6,2.917l-1.884-.261v3.709H440.537v1.077h14.534V58.964h-6.416v.575a29.384,29.384,0,0,1,3.558.575,1.946,1.946,0,0,1,1.28.771,2.614,2.614,0,0,1,.346.981,10.091,10.091,0,0,0,2.884-1.192,2.259,2.259,0,0,0,.376-1.567c.014-.5,0-.694,0-.694V58.4Z" transform="translate(-91 16)"/><path d="M481.279,53.054a3.779,3.779,0,0,0,2.674-1.485c1.22-1.48,1.33-3.6.994-6.261a12.343,12.343,0,0,0-3.93-7.379l4.339-9.252,1.205-1.09-1.891-2.1-1.484,1.349h-4.5l-1.9-1.667v36.7l1.94-.595V50.9a4.445,4.445,0,0,1,2,.815,1.658,1.658,0,0,1,.558,1.334m-2.557-25.183h4.846L480.35,38.053a15.14,15.14,0,0,1,1.782,2.879,14.156,14.156,0,0,1,1.111,3.964c.183,1.971.221,4.081-.667,5.083-.671.75-2.822.388-3.854.164Z" transform="translate(-91 16)"/><path d="M441.983,40.466c1.042-.046,1.784-2.634,2.288-4.528a15.772,15.772,0,0,0,.359-1.772h23.414l-1.382,4.024.4.412,2.762-3.629,1.207-1.1-1.893-2.1-1.479,1.351h-6.215c.816-.877,2.28-2.474,2.911-3.243,1.038-1.252,2.693-3.319,2.693-3.319l-2.4-1.385a41.313,41.313,0,0,1-1.867,4.153c-.907,1.722-1.866,3.288-2.18,3.794H444.774c.144-1.206.217-2.208.217-2.208l-.567-.031a18.051,18.051,0,0,1-1.122,3.922,18.1,18.1,0,0,1-2.067,3.047c-.39.645-.282,2.672.748,2.612" transform="translate(-91 16)"/><path d="M485.942,36.646c1.023-.043,1.749-2.388,2.243-4.091.108-.385.2-.831.289-1.285h14.717l-1.532,4.264-.554-.548-1.734,1.722H487.722V37.8h16.234l-1.909-1.882,2.926-3.841,1.205-1.093-1.885-2.106-1.486,1.354h-6.461l0-4.258,1.146-.758-3.078-.944v5.96h-5.775c.162-1.184.231-2.214.231-2.214l-.561-.03a15.067,15.067,0,0,1-1.088,3.545,16.065,16.065,0,0,1-2.021,2.748c-.386.587-.273,2.41.746,2.368" transform="translate(-91 16)"/><path d="M449.749,32.276c.527,0,1.286-1.043,1.228-1.909a4.739,4.739,0,0,0-1.34-2.691,11.565,11.565,0,0,0-2.606-2.362l-.392.4a17.88,17.88,0,0,1,1.668,2.951c.886,2.06,1,3.615,1.442,3.615" transform="translate(-91 16)"/><path d="M456.677,31.8c.525.032,1.353-.988,1.323-1.869a4.787,4.787,0,0,0-1.225-2.784,12.027,12.027,0,0,0-2.52-2.508l-.415.39a18.162,18.162,0,0,1,1.545,3.056c.8,2.118.844,3.7,1.292,3.715" transform="translate(-91 16)"/><path d="M350.532,46.867h16.907l-2.857-2.813-1.728,1.731H336.926v1.082h11.067a32.278,32.278,0,0,1-1.323,4.746c-.679,1.768-1.838,4.384-2.337,5.5-3.072.152-5.958.283-5.958.283l.644,2.824,21.844-3.881c1.136,2.1,1.983,4.3,2.37,4.273.482-.031,1.109-1.263.888-2.671s-.961-2.671-3.112-4.818a34.921,34.921,0,0,0-4.785-3.9l-.479.483a41.663,41.663,0,0,1,4.372,5.345c.1.154.2.322.294.485-1.8.265-7.615,1.1-10.659,1.291-1.15.069-2.73.153-4.33.234.631-1.042,1.948-3.252,2.874-5.151.944-1.949,1.846-4.1,2.236-5.049" transform="translate(-91 16)"/><path d="M376.227,31.292c1.772-2.212,3.691-5.241,3.691-5.241L377.48,24.64a27.708,27.708,0,0,1-2.508,5.254,65.735,65.735,0,0,1-4.177,6.243l.478.481a66.64,66.64,0,0,0,4.954-5.326" transform="translate(-91 16)"/><path d="M390.622,29.7c.742,1.149.815,2.15,1.369,2.15s.953-1.213.671-1.971a3.154,3.154,0,0,0-1.3-1.625,9.948,9.948,0,0,0-2.132-1.1l-.428.423a11.874,11.874,0,0,1,1.818,2.119" transform="translate(-91 16)"/><path d="M380.468,47.222a85.61,85.61,0,0,1-2.063,9.992h.608a56.014,56.014,0,0,0,2.858-9.1c1.019-4.467,1.269-7.172,1.5-8.665.011-.011-2.055-.516-2.055-.547a67.706,67.706,0,0,1-.848,8.321" transform="translate(-91 16)"/><path d="M424.491,44.151a26.144,26.144,0,0,1-2.1-6.9h15.138L434.274,34,432.1,36.167h-9.936c.363-4.043.271-9.2.271-9.2l1.076-.687-3.469-1.148s.092,7.655-.231,11.037h-13.7v1.088h13.573a40.606,40.606,0,0,1-2.091,9.176,25.422,25.422,0,0,1-5.838,8.676,39.575,39.575,0,0,1-6.619,5.284l.283.672a62.025,62.025,0,0,0,7.118-4.671,25.708,25.708,0,0,0,6.5-8.346,30.446,30.446,0,0,0,2.809-9.282,41.412,41.412,0,0,0,1.422,5.5,44.316,44.316,0,0,0,5.4,10.068c2.451,3.347,7.507,6.951,7.507,6.951a4.952,4.952,0,0,1,.607-1.614c.45-.665,2.284-.835,2.284-.835a28.054,28.054,0,0,1-9.233-6.508,29.19,29.19,0,0,1-5.342-8.173" transform="translate(-91 16)"/><path d="M562.4,58.4l0-9.677h14.944l-2.695-2.81-1.888,1.73H562.4l0-2.749a45.3,45.3,0,0,0,3.779-2.726c1.057-.94,3.449-3.06,3.449-3.06l-2.113-2.114s-.263.479-.659,1.159H551.617V39.2H566.23c-.419.675-.9,1.418-1.38,2.082a25.051,25.051,0,0,1-2.595,2.913l-1.892-.26V47.64H545.832v1.08h14.531l0,10.223v.012H553.95v.576a30.107,30.107,0,0,1,3.556.572,1.961,1.961,0,0,1,1.287.774,2.583,2.583,0,0,1,.338.981,10.143,10.143,0,0,0,2.883-1.192,2.272,2.272,0,0,0,.379-1.572c.012-.5,0-.693,0-.693Z" transform="translate(-91 16)"/><path d="M547.274,40.458c1.036-.045,1.792-2.638,2.291-4.532a16.267,16.267,0,0,0,.358-1.772h23.418l-1.388,4.027.4.409,2.759-3.629,1.209-1.095-1.891-2.1-1.487,1.345h-6.209c.816-.877,2.282-2.473,2.915-3.239,1.042-1.251,2.693-3.319,2.693-3.319l-2.4-1.388a40.253,40.253,0,0,1-1.869,4.156c-.905,1.719-1.862,3.284-2.178,3.79H550.065c.144-1.2.212-2.208.212-2.208l-.562-.027a18.037,18.037,0,0,1-1.122,3.922,18.134,18.134,0,0,1-2.059,3.044c-.4.648-.288,2.674.74,2.615" transform="translate(-91 16)"/><path d="M555.044,32.269c.523,0,1.294-1.043,1.221-1.914a4.682,4.682,0,0,0-1.331-2.687,11.676,11.676,0,0,0-2.608-2.362l-.392.4a17.816,17.816,0,0,1,1.666,2.95c.885,2.056,1,3.617,1.444,3.617" transform="translate(-91 16)"/><path d="M561.968,31.793c.534.028,1.353-.987,1.323-1.873a4.83,4.83,0,0,0-1.221-2.779,11.772,11.772,0,0,0-2.522-2.508l-.425.389a17.54,17.54,0,0,1,1.557,3.057c.8,2.117.842,3.695,1.288,3.714" transform="translate(-91 16)"/><path d="M529.9,44.151a26.293,26.293,0,0,1-2.105-6.9h15.136L539.679,34l-2.169,2.169h-9.936c.362-4.043.267-9.2.267-9.2l1.083-.687L525.45,25.13s.1,7.655-.229,11.037h-13.7v1.088H525.1a41.426,41.426,0,0,1-2.089,9.176,25.6,25.6,0,0,1-5.84,8.676,39.63,39.63,0,0,1-6.621,5.284l.275.672a61.294,61.294,0,0,0,7.122-4.671,25.629,25.629,0,0,0,6.509-8.346,30.776,30.776,0,0,0,2.809-9.286,39.318,39.318,0,0,0,1.416,5.5,44.3,44.3,0,0,0,5.4,10.068c2.453,3.347,7.507,6.951,7.507,6.951a4.931,4.931,0,0,1,.613-1.614c.444-.665,2.278-.835,2.278-.835a28.058,28.058,0,0,1-9.231-6.508,29.189,29.189,0,0,1-5.34-8.173" transform="translate(-91 16)"/><path d="M319.49,48.728h14.94l-2.687-2.811-1.9,1.734H319.49V44.9c1.038-.695,3.018-2.041,3.781-2.725,1.054-.941,3.447-3.06,3.447-3.06L324.609,37s-.265.478-.665,1.159H308.7v1.045h14.617c-.421.676-.9,1.419-1.386,2.079a24.1,24.1,0,0,1-2.6,2.917l-1.886-.261v3.709H302.916v1.077h14.536V58.964h-6.416v.575a29.113,29.113,0,0,1,3.554.575,1.956,1.956,0,0,1,1.288.771,2.627,2.627,0,0,1,.342.981,10.024,10.024,0,0,0,2.884-1.192,2.312,2.312,0,0,0,.378-1.567c.012-.5,0-.694,0-.694V58.4Z" transform="translate(-91 16)"/><path d="M304.363,40.466c1.038-.046,1.782-2.634,2.29-4.528a16.285,16.285,0,0,0,.353-1.772h23.418l-1.388,4.024.408.412,2.764-3.629,1.2-1.1-1.891-2.1-1.483,1.351h-6.211c.812-.877,2.282-2.474,2.907-3.243,1.046-1.252,2.7-3.319,2.7-3.319l-2.393-1.385a41.812,41.812,0,0,1-1.876,4.153c-.908,1.722-1.863,3.288-2.175,3.794H307.15c.147-1.206.216-2.208.216-2.208l-.565-.031a17.765,17.765,0,0,1-1.125,3.922,18.07,18.07,0,0,1-2.059,3.047c-.394.645-.29,2.672.746,2.612" transform="translate(-91 16)"/><path d="M312.129,32.276c.523,0,1.29-1.043,1.225-1.909a4.729,4.729,0,0,0-1.338-2.691,11.564,11.564,0,0,0-2.6-2.362l-.4.4a17.789,17.789,0,0,1,1.666,2.951c.887,2.06,1,3.615,1.446,3.615" transform="translate(-91 16)"/><path d="M319.054,31.8c.532.032,1.353-.988,1.324-1.869a4.823,4.823,0,0,0-1.22-2.784,11.939,11.939,0,0,0-2.524-2.508l-.417.39a17.919,17.919,0,0,1,1.547,3.056c.8,2.118.844,3.7,1.29,3.715" transform="translate(-91 16)"/><path d="M392.113,53.2c.629,0,1.215-1.763,1.215-3.485a21.155,21.155,0,0,0-1.459-6.551A37.638,37.638,0,0,0,389.5,37.99l-.492.208a63.824,63.824,0,0,1,2.472,12.5c.246,2.42.281,2.5.629,2.5" transform="translate(-91 16)"/></g></svg>