<!--?xml version="1.0" encoding="utf-8"?-->
<!-- Generator: Adobe Illustrator 18.1.1, SVG Export Plug-In . SVG Version: 6.00 Build 0)  -->

<svg version="1.1" id="_x31_0" xmlns="http://www.w3.org/2000/svg" xmlns:xlink="http://www.w3.org/1999/xlink" x="0px" y="0px" viewBox="0 0 512 512" style="width: 256px; height: 256px; opacity: 1;" xml:space="preserve">
<style type="text/css">
	.st0{fill:#374149;}
</style>
<g>
	<path class="st0" d="M478.553,325.548l-39.675-30.933c-15.16-11.821-34.102-18.332-53.332-18.332
		c-21.742,0-42.574,8.074-58.66,22.738c-2.183,1.993-4.234,3.902-6.152,5.73c-18.863-12.617-49.632-39.078-61.289-51.214
		l-0.484-0.503l-0.5-0.481c-12.137-11.656-38.594-42.426-51.214-61.289c1.832-1.918,3.742-3.969,5.734-6.156
		c28.644-31.422,30.496-78.519,4.402-111.987L186.45,33.445C169.884,12.191,144.923,0,117.974,0c-7.16,0-14.317,0.894-21.274,2.652
		C80.123,6.84,56.721,22.343,40.885,35.847C12.741,59.843-0.998,83.925,0.058,107.425c0.386,8.664,2.66,21.863,16.578,54.07
		c64.964,150.33,183.538,268.904,333.873,333.868c32.198,13.918,45.402,16.191,54.066,16.578c0.817,0.039,1.649,0.058,2.473,0.058
		c50.246,0,96.218-72.628,102.304-96.702C517.784,381.938,505.694,346.708,478.553,325.548z M117.974,34.598
		c15.863,0,31.156,7.238,41.195,20.117l30.933,39.675c15.676,20.11,14.492,48.57-2.687,67.414
		c-6.996,7.672-13.867,14.594-18.664,18.27c-13.992,10.695,51.206,83.464,65.746,97.429c12.629,13.149,73.324,67.702,92.754,67.702
		c2.058,0,3.652-0.613,4.679-1.953c3.672-4.805,10.594-11.672,18.266-18.664c9.977-9.098,22.648-13.71,35.351-13.71
		c11.289,0,22.602,3.644,32.062,11.023l39.675,30.93c16.332,12.734,23.602,33.914,18.523,53.991
		c-4.066,16.094-41.105,70.582-68.761,70.582c-0.309,0-0.621-0.004-0.922-0.019c-7.997-0.359-23.024-5.618-41.894-13.774
		c-141.55-61.171-254.67-174.291-315.842-315.838c-8.152-18.874-13.414-33.902-13.774-41.894
		c-1.242-27.746,54.289-65.574,70.562-69.687C109.423,35.117,113.721,34.598,117.974,34.598z" style="fill: rgb(75, 75, 75);"></path>
</g>
</svg>
