<?xml version="1.0" encoding="UTF-8"?>
<svg id="_レイヤー_1" data-name="レイヤー_1" xmlns="http://www.w3.org/2000/svg" version="1.1" viewBox="0 0 452 379">
  <!-- Generator: Adobe Illustrator 29.8.2, SVG Export Plug-In . SVG Version: 2.1.1 Build 3)  -->
  <path d="M182,0c4,0,8,.2,12,.3q1.7,0,3.4,0c6.5.2,11.6.9,17.6,3.6v2c.6-.2,1.1-.3,1.7-.5,6.7-1.7,11.7-1.6,18.2,1,3.7,1.5,6.8,1.6,10.8,1.2,2.8.2,4.9,1.3,7.4,2.4,3.5,1.4,7.2,1.8,10.9,2.4.8.1,1.5.2,2.3.4,3.7.6,7.4,1.1,11.2,1.5,3.3.4,5.6,1.3,8.6,2.5.8,0,1.7-.1,2.5-.2q2.5.2,4.8,2.6c3.6,3.5,5.8,3.8,10.7,4.6,1-.3,2-.7,3-1,.7.7,1.3,1.4,2,2.2,2.7,2.8,5.8,4.6,9.1,6.6,2.7,1.7,4.7,4,6.9,6.3q2.9,2,6,3l3-.8c1,0,2-.2,3-.2,2.4,2,4.1,4.5,6,7,4.6,5.1,11.1,8.6,17.6,10.5,6,1.8,10.5,5.4,14.7,10,4.6,4.3,10.4,7.3,16.4,9.5,2.7,1.2,3.5,2.2,5.1,4.6,2.3,3.2,4.7,6.1,7.4,8.9,3.1,3.4,4.6,6.1,5.9,10.5,1.2,2.6,2.8,4.3,4.8,6.4,3.6,3.8,5.5,7.3,7.1,12.3q.9,2.5,2.9,4.6c2.7,3.6,4.2,7.3,5.9,11.4,3.5,8.2,7.7,14.4,13.8,20.9,4.8,5.8,5.4,13.2,6.5,20.4.1.8.3,1.6.4,2.4,3.6,25.7-3,54.1-13.4,77.6-1,2.5-1.9,5-2.9,7.4-.4,1.1-.8,2.1-1.2,3.2q-.4,1.1-.9,2.3c1,.7,2,1.3,3,2-1.7,11.8-13.8,22-22,30-3.4,3.3-6.8,6.6-9.8,10.4-3.3,3.9-7.2,7-11.2,10.2-3.1,2.6-6.2,5.2-9.2,8-.5.5-1,.9-1.5,1.4-3.7,3.4-7,7.1-10.1,11.1-2.7,2.4-5.5,3.5-8.8,4.9-3.9,1.7-7.6,3.9-11.3,6.1q-16.8,9.5-26.9,9c-3.9,0-7.9,1-11.2,3q-.8,2-1,4c-1.1.2-2.2.5-3.4.7-1.5.3-3.1.7-4.6,1-.8.2-1.6.4-2.5.5-3.9.9-7.8,1.7-11.6,2.8-33.4,9.2-67.4-1.3-97.1-17.4-8-4.9-13-11.1-15.6-20.1-1.2-5.2-1.9-10.3-2.2-15.6q0-1.2-.2-2.4c-.5-13.9,5.1-24.3,12.7-35.4q1.5-2.1,2.7-4.6c2.2-3.3,4.9-5.7,7.9-8.1.6-.5,1.2-1,1.8-1.5q9.7-8,15.1-8c0-.8,0-1.6-.1-2.4q.1-2.6,2.1-4.6c.8,0,1.6,0,2.4,0q2.7.1,4.6-1.6t1.9-2.1c.7-.7,1.4-1.4,2.1-2.2,2.7-3,5.4-6.1,8-9.2q-6.4-2-13-4v-2c-1.2.4-2.3.7-3.5,1.1-6.7,2-13.9-.3-20.5-2-.7-.2-1.5-.4-2.2-.6-1.5-.4-3.1-.8-4.6-1.2-2.3-.6-4.6-1.2-7-1.8q-28.4-7.2-35.6-16.7c-3-5.3-3.2-9.9-2.6-15.9,2-7,6.5-11.4,12.7-15,6.3-3.4,12.6-6.8,19.6-8.5,5.3-1.3,8.5-4.5,12.4-8.2,9.5-7.6,24.2-9.6,35.8-12.5q10.9-2.7,21.3-6.9c4.6-2,9.5-3,14.3-4.2,1-.3,2.1-.5,3.2-.8q13.2-3.3,18.8-.3c3.4,2.8,6.2,5.7,9.1,9,1,1.1,2.1,2.3,3.1,3.4.4.5.9,1,1.4,1.5q1.4,1.5,3,3,1.3,1.4,1.6,3.5c0,2-.2,4-.3,6-6.4,2.7-13,2.6-19.8,1.6-15.8-2.2-32.4,3.7-47.1,9.2-4.9,1.8-8.9,2.5-14.2,2.2-4.6,0-7.8,2.8-11,5.7-4.1,3.6-8.7,6.3-13.3,9.1-.8.5-1.7,1-2.5,1.5-2,1.2-4,2.4-6.1,3.6,5.6,2.2,11,3.8,16.8,5.1.8.2,1.7.4,2.5.5,2.7.6,5.4,1.1,8.1,1.7,1.9.4,3.8.8,5.6,1.2,8.9,1.9,17.8,3.7,26.8,5.3.8.1,1.5.3,2.3.4,3.5.6,7,1.2,10.6,1.8,7.9,1.3,14.7,2.6,20.7,8.3,2,3.5,2.6,5.7,2.6,9.7-2.1,7-6.5,10.5-12.4,14.4-.7.5-1.5,1-2.2,1.6-3.1,2.1-5.7,3.8-9.3,5-3.4,1.2-5.1,2.6-7.7,5-.9.8-1.7,1.6-2.6,2.4-5.6,5.4-11,10.9-16.4,16.4-5.4,5.4-10.9,10.5-16.9,15.2q-7.5,6-12.4,13.9c-.2,7.4.7,16.7,5.4,22.8,12.4,11.7,37.5,17.8,54.2,17.5,14.3-1,27.9-4.7,41.4-9.2q1.5-.5,3.1-1c19-6.4,34.5-14.1,49.9-27,.6-.5,1.2-1,1.8-1.5,7.3-6.1,14.4-12.5,21.4-19,3-2.8,6-5.5,9.2-8.1,15.8-13.8,20.4-33,25-52.6,1.4-5.8,3-11.4,4.8-17,1.1-3.6,1.5-7.1,1.8-10.8h2c-2.4-12.8-5-25.3-9.7-37.4q-1.3-3.6-2.2-7.1c-1.2-3.9-3.1-6.6-5.6-9.7-4.1-5.4-7.4-11-10.6-16.9-8-14.8-19.9-23.9-33.1-34-3.7-2.8-7.3-5.7-10.9-8.6q-1.3-1-2.6-2.1-2.3-2.1-4.1-4.7c-2.4-2.5-3.1-2.9-6.3-3.8-6.2-1.8-10.9-5.5-16-9.3-9.1-6.4-18-12.4-27.9-17.4q-1.4-.7-2.9-1.5c-32.8-16.4-63.2-19.7-99.5-19.8-2,0-3.9,0-5.9,0-12-.1-23.1.7-34.8,3.3-1.3.2-2.5.5-3.8.8-9.7,2-15.1,6.9-21.7,13.8-1.5,1.5-3,2.8-4.7,4.1-2.3,1.9-4.1,3.6-6,5.8-.6.7-1.2,1.3-1.8,2-1.6,1.9-3.2,3.9-4.8,5.8-.5.6-1,1.2-1.5,1.8-1,1.2-1.9,2.3-2.8,3.5-2.1,2.6-3.6,4.2-6.7,5.4-.8.3-1.5.7-2.3,1-.7,2-1.4,4-2,6-1.9,3.1-4.2,6-6.4,8.9-.6.8-1.3,1.7-1.9,2.6-3.3,4.4-6.7,8.7-10.2,13-26.4,32.1-45.6,66.7-45.8,108.8,0,1.7,0,3.4,0,5.1,0,2.5,0,4.9,0,7.4,0,.7,0,1.5,0,2.3,0,5.2,1.4,8,4.5,12.1q1,2.1,1.6,4c.3.7.5,1.4.8,2.2.3.7.5,1.5.8,2.3,7.7,20.4,18.7,34.9,35.8,48.6.7.6,1.5,1.2,2.3,1.8,2.2,1.8,4.5,3.5,6.7,5.2.5.4,1,.8,1.6,1.2,1.7,1.3,3.4,2.5,5.1,3.8,1.1.8,2.1,1.5,3.2,2.3q3,2,6.1,1.6c4.1.2,5.4,1.8,8.2,4.4,10.1,9.4,22.9,16.2,35,22.7,7.2,3.9,14,8.1,19.8,14q-.2,2.5-1,5c-1,.7-2,1.3-3,2q-1.2,2.5-2.1,5.4c-1.1,3.3-2,5.7-3.9,8.6-8.8,1.5-16-4.2-22.9-9.1-4.6-3.1-8.8-5.2-14.1-6.9-4.8-1.7-9.2-4.1-13.7-6.5q-3.2-1.7-6.5-2.5c-3.4-1.3-4.3-2.7-6.2-5.8-4.7-7.1-9.7-11.4-17.2-15.2-3.7-1.9-6.2-3.6-8.8-6.9-3-3.8-6.3-5.7-10.6-7.9-6.6-3.4-10.2-7.4-14.3-13.6-1.8-2.5-3.2-4.1-5.9-5.6h-3c-.2-.5-.5-1-.7-1.6-1.7-3.6-3-6.1-5.9-8.9-2.9-3.1-3.6-5.6-4.6-9.7q-.4-.9-.9-1.9c-.6-.1-1.3-.3-1.9-.4q-2.1-.6-3.2-2.1c-1-2.2-2.1-4.3-3-6.6q-.5-1.2-1.1-2.5c-2.6-6.4-3.4-11.9-3.5-18.8-.2-6.1-1.6-12.1-2.8-18.1-1.9-9.7-2.9-19.1-2.9-28.9,0-1.1,0-2.1,0-3.2.1-5.5.6-10.2,2.4-15.4,1.6.7,3.3,1.3,5,2,2.1-2.1,2.4-3.1,3-6-1.6.3-3.3.7-5,1,1.5-10.5,4.1-19.6,10.3-28.3,2.7-4.2,4.8-8.7,6.9-13.2q3-6.2,5.8-8.5,1-.2,2-.5,2-.3,3.2-2c1.2-2,2.3-4.1,3.4-6.1.4-.7.8-1.4,1.2-2.1,2-3.6,3.3-6.6,3.7-10.7q.4-3.7,1.8-5.5c.6-.4,1.1-.8,1.7-1.2.6-.5,1.3-1,1.9-1.5.7-.5,1.3-1,2-1.5,11.7-9.5,20.9-21.1,30-33,.6-.7,1.1-1.4,1.7-2.1,1.4-2.1,2.1-4,2.8-6.5.9-2.9,1.2-4.2,3.4-6.4,1.1-.4,2.1-.7,3.2-1.1,4.1-1.7,6.3-4.5,9.1-7.9,3.6-4.3,7.9-7.1,12.7-10,1-.9,2.1-1.7,3.1-2.6,2.6-2.1,3.8-3,6.9-3.4,0-.7,0-1.4.1-2.2,1.2-3.9,3.5-5.8,6.9-7.8,2.3-.7,4.7-1.4,7-2l2.2-1.7c.6-.4,1.2-.9,1.8-1.3,1,.3,2,.7,3,1,1-.7,2-1.3,3-2v-3c5.2-.9,10.2-1.1,15.4-1.1.7,0,1.5,0,2.2,0,1.8,0,3.6,0,5.3,0v2c4.7-.5,8.7-1,13-3V0ZM24,136c-.7,2-1.3,4-2,6h2c.3-2,.7-4,1-6h-1ZM446,198v3h2c-.3-1-.7-2-1-3h-1Z"/>
  <path d="M179.6,105.8c4.5,3.9,6.2,8,6.6,13.9-.2,2.6-.6,4.8-1.2,7.3,0,.9.1,1.9.2,2.9-.2,4.1-1.6,6-4.2,9.1-3.5,2.7-5.7,3.2-10,3-.7.2-1.4.4-2.2.6q-1.8.4-3.8-.6c-.7.2-1.4.5-2.1.7-6,.6-11.3-3-15.9-6.6-2.7-2.5-4.2-4.4-5.1-8.1-.2-.6-.3-1.3-.5-2-1.1-5.7,0-9.6,2.8-14.7,3-4.3,6.9-8,11.7-10.4,9.8-1.6,15.6-1.5,23.6,4.8Z"/>
</svg>